<?xml version="1.0" encoding="utf-8"?>
<svg xmlns="http://www.w3.org/2000/svg" viewBox="0 0 118 75.9" role="img">
<g>
	<path d="M113.8,4.5C113.7,4.2,113.3,4,113,4H87.2c-0.4,0-0.7,0.2-0.9,0.5L69.1,34.8l5.4,9.6c0.3,0.5,0.9,0.6,1.4,0.4
		c0.2-0.1,0.3-0.2,0.4-0.4l11-19.4l7-12c0.6-0.9,1.8-1.2,2.8-0.6c0.9,0.6,1.2,1.7,0.7,2.6l-7,12l-11,19.4c-1.4,2.4-4.4,3.2-6.8,1.9
		c-0.8-0.4-1.4-1.1-1.9-1.9l-6-10.5v-0.1l-4.1-7.3C60.7,28.2,60.4,28,60,28h-2.1c-0.4,0-0.7,0.2-0.9,0.5L53,35.7v0.1l-6,10.6
		C46.1,48,44.4,49,42.6,49l0,0c-1.8,0-3.5-1-4.3-2.5L20.3,15c-0.6-1-0.2-2.2,0.7-2.7s2.2-0.2,2.7,0.7l0,0l18,31.5
		c0.2,0.3,0.5,0.5,0.9,0.5c0.4,0,0.7-0.2,0.9-0.5l5.4-9.6L31.7,4.5C31.5,4.2,31.2,4,30.8,4H5C4.7,4,4.3,4.2,4.1,4.5
		C4,4.8,4,5.2,4.1,5.5l37.6,66c0.3,0.5,0.9,0.6,1.4,0.4c0.2-0.1,0.3-0.2,0.4-0.4l5.4-9.5l0,0l7.8-13.6c0.7-1.2,2.3-1.7,3.6-1
		c0.4,0.2,0.7,0.6,1,1L69,62l0,0l5.4,9.5c0.3,0.5,0.9,0.6,1.4,0.4c0.2-0.1,0.3-0.2,0.4-0.4l37.6-66C114,5.2,114,4.8,113.8,4.5z"/>
	<polygon points="53.4,62.2 59,65.5 64.6,62.2 59,52.4 	"/>
</g>
<path d="M75.3,76c-1.8,0-3.5-1-4.3-2.5l-4.4-7.7l-5.9,3.5c-1,0.6-2.3,0.6-3.3,0l-5.9-3.5L47,73.4
	c-1.4,2.4-4.4,3.2-6.8,1.9c-0.8-0.4-1.4-1.1-1.9-1.9L0.7,7.5C-0.7,5.1,0.1,2,2.5,0.6C3.3,0.2,4.1,0,5,0h25.8c1.8,0,3.5,1,4.4,2.5
	l16.1,28.3l2.4-4.2c0.9-1.6,2.5-2.6,4.3-2.6h2.1c1.8,0,3.5,1,4.3,2.5l2.4,4.2l16-28.2C83.7,0.9,85.4,0,87.2,0H113c2.8,0,5,2.2,5,5
	c0,0.9-0.2,1.7-0.7,2.5l-37.6,66C78.8,75,77.1,76,75.3,76z M69.1,62l5.4,9.5c0.3,0.5,0.9,0.6,1.4,0.4c0.2-0.1,0.3-0.2,0.4-0.4
	l37.6-66c0.2-0.3,0.2-0.7,0-1C113.7,4.2,113.3,4,113,4H87.2c-0.4,0-0.7,0.2-0.9,0.5L69.1,34.8l5.4,9.6c0.3,0.5,0.9,0.6,1.4,0.4
	c0.2-0.1,0.3-0.2,0.4-0.4l11-19.4l7-12c0.6-0.9,1.8-1.2,2.8-0.6c0.9,0.6,1.2,1.7,0.7,2.6l-7,12l-11,19.4c-1.4,2.4-4.4,3.2-6.8,1.9
	c-0.8-0.4-1.4-1.1-1.9-1.9l-6-10.5v-0.1l-4.1-7.3C60.7,28.2,60.4,28,60,28h-2.1c-0.4,0-0.7,0.2-0.9,0.5L53,35.7v0.1l-6,10.6
	C46.1,48,44.4,49,42.6,49l0,0c-1.8,0-3.5-1-4.3-2.5L20.3,15c-0.6-1-0.2-2.2,0.7-2.7s2.2-0.2,2.7,0.7l0,0l18,31.5
	c0.2,0.3,0.5,0.5,0.9,0.5c0.4,0,0.7-0.2,0.9-0.5l5.4-9.6L31.7,4.5C31.5,4.2,31.2,4,30.8,4H5C4.7,4,4.3,4.2,4.1,4.5
	C4,4.8,4,5.2,4.1,5.5l37.6,66c0.3,0.5,0.9,0.6,1.4,0.4c0.2-0.1,0.3-0.2,0.4-0.4l5.4-9.5l0,0l7.8-13.6c0.7-1.2,2.3-1.7,3.6-1
	c0.4,0.2,0.7,0.6,1,1L69.1,62L69.1,62z M53.4,62.2l5.6,3.3l5.6-3.3L59,52.4L53.4,62.2z" style="fill: transparent"/>
</svg>